<svg width="115" height="60" viewBox="0 0 115 60" fill="none" xmlns="http://www.w3.org/2000/svg">
<path id="petvio" d="M5.16 57.82C4.2 57.82 3.52 57.66 3.12 57.34C2.72 57.02 2.52 56.4 2.52 55.48V17.74C3.72 17.02 5.08 16.46 6.6 16.06C8.12 15.62 9.68 15.4 11.28 15.4C13.28 15.4 15 15.76 16.44 16.48C17.88 17.16 19 18.4 19.8 20.2C20.64 21.96 21.06 24.48 21.06 27.76C21.06 31 20.9 33.74 20.58 35.98C20.26 38.18 19.8 39.98 19.2 41.38C18.64 42.78 18 43.86 17.28 44.62C16.56 45.38 15.78 45.9 14.94 46.18C14.14 46.46 13.32 46.6 12.48 46.6C11.44 46.6 10.54 46.46 9.78 46.18C9.02 45.9 8.42 45.54 7.98 45.1V57.4C7.54 57.52 7.06 57.62 6.54 57.7C6.06 57.78 5.6 57.82 5.16 57.82ZM10.68 41.74C11.12 41.74 11.58 41.6 12.06 41.32C12.54 41.04 13 40.46 13.44 39.58C13.88 38.7 14.24 37.36 14.52 35.56C14.8 33.72 14.94 31.3 14.94 28.3C14.94 26.06 14.8 24.36 14.52 23.2C14.24 22 13.8 21.2 13.2 20.8C12.64 20.36 11.92 20.14 11.04 20.14C9.88 20.14 8.86 20.48 7.98 21.16V40.06C8.34 40.66 8.74 41.1 9.18 41.38C9.66 41.62 10.16 41.74 10.68 41.74ZM33.7758 46.6C32.3758 46.6 31.0958 46.4 29.9358 46C28.7758 45.6 27.7758 44.9 26.9358 43.9C26.0958 42.9 25.4358 41.48 24.9558 39.64C24.4758 37.8 24.2358 35.42 24.2358 32.5C24.2358 28.78 24.5358 25.8 25.1358 23.56C25.7358 21.28 26.5358 19.56 27.5358 18.4C28.5358 17.24 29.6758 16.46 30.9558 16.06C32.2358 15.62 33.5358 15.4 34.8558 15.4C37.3358 15.4 39.2358 16.2 40.5558 17.8C41.8758 19.36 42.5358 21.78 42.5358 25.06C42.5358 26.46 42.4758 27.88 42.3558 29.32C42.2358 30.76 42.0358 32.02 41.7558 33.1C40.4758 33.38 39.0158 33.58 37.3758 33.7C35.7358 33.82 34.1558 33.92 32.6358 34C31.1558 34.04 29.9358 34.06 28.9758 34.06C28.0158 34.06 27.5358 34.06 27.5358 34.06L27.6558 29.62C27.6558 29.62 27.9958 29.64 28.6758 29.68C29.3558 29.68 30.2158 29.68 31.2558 29.68C32.2958 29.68 33.3158 29.64 34.3158 29.56C35.3558 29.44 36.2158 29.28 36.8958 29.08C37.0158 28.56 37.0958 28 37.1358 27.4C37.1758 26.76 37.1958 26.16 37.1958 25.6C37.1958 23.52 36.9758 22.1 36.5358 21.34C36.1358 20.58 35.3558 20.2 34.1958 20.2C33.5958 20.2 33.0158 20.4 32.4558 20.8C31.9358 21.16 31.4758 21.8 31.0758 22.72C30.7158 23.64 30.4158 24.88 30.1758 26.44C29.9758 28 29.8758 29.94 29.8758 32.26C29.8758 33.98 29.9758 35.42 30.1758 36.58C30.3758 37.74 30.6558 38.66 31.0158 39.34C31.4158 40.02 31.9358 40.52 32.5758 40.84C33.2558 41.12 34.0558 41.26 34.9758 41.26C36.1358 41.26 37.2758 41.1 38.3958 40.78C39.5558 40.46 40.6358 40.02 41.6358 39.46C41.8358 39.98 41.9558 40.6 41.9958 41.32C42.0758 42 42.1158 42.62 42.1158 43.18C42.1158 43.86 41.7358 44.46 40.9758 44.98C40.2158 45.5 39.1958 45.9 37.9158 46.18C36.6758 46.46 35.2958 46.6 33.7758 46.6ZM54.7439 46.6C53.0239 46.6 51.7439 46.26 50.9039 45.58C50.0639 44.86 49.5039 43.84 49.2239 42.52C48.9839 41.16 48.8639 39.6 48.8639 37.84V20.68H44.9039C44.9039 19.28 44.9239 18.26 44.9639 17.62C45.0039 16.94 45.1039 16.5 45.2639 16.3C45.4639 16.1 45.7439 16 46.1039 16H48.8639V7C48.8639 6.4 49.0039 5.98 49.2839 5.74C49.6039 5.5 50.1439 5.36 50.9039 5.32C51.7039 5.24 52.8439 5.2 54.3239 5.2V16H60.0839C60.0839 17.4 60.0639 18.44 60.0239 19.12C59.9839 19.76 59.8839 20.18 59.7239 20.38C59.6039 20.58 59.3639 20.68 59.0039 20.68H54.3239V37.78C54.3239 38.5 54.3439 39.18 54.3839 39.82C54.4639 40.46 54.6239 40.98 54.8639 41.38C55.1439 41.74 55.6039 41.92 56.2439 41.92C56.9239 41.92 57.5039 41.86 57.9839 41.74C58.5039 41.58 59.0639 41.36 59.6639 41.08C59.7439 41.4 59.8239 41.8 59.9039 42.28C59.9839 42.72 60.0239 43.2 60.0239 43.72C60.0239 44.52 59.7439 45.14 59.1839 45.58C58.6239 45.98 57.9439 46.24 57.1439 46.36C56.3439 46.52 55.5439 46.6 54.7439 46.6ZM70.4077 46.36C69.7677 46.36 69.2677 46.08 68.9077 45.52C68.5877 44.92 68.3077 44.2 68.0677 43.36L62.3077 17.68C62.1877 17.08 62.1877 16.68 62.3077 16.48C62.4677 16.28 62.9677 16.16 63.8077 16.12C64.6877 16.04 66.1477 16 68.1877 16L69.8077 25.3C70.0877 26.78 70.3477 28.38 70.5877 30.1C70.8277 31.82 71.0277 33.46 71.1877 35.02C71.3877 36.54 71.5277 37.78 71.6077 38.74C71.7277 39.7 71.7877 40.18 71.7877 40.18H71.9077C71.9077 40.18 71.9477 39.7 72.0277 38.74C72.1477 37.78 72.2877 36.54 72.4477 35.02C72.6477 33.46 72.8477 31.82 73.0477 30.1C73.2877 28.34 73.5477 26.72 73.8277 25.24L75.2077 17.14C75.2877 16.78 75.4077 16.52 75.5677 16.36C75.7277 16.2 76.2077 16.1 77.0077 16.06C77.8077 16.02 79.1077 16 80.9077 16L74.3077 46.12C73.7877 46.2 73.1277 46.26 72.3277 46.3C71.5277 46.34 70.8877 46.36 70.4077 46.36ZM84.2583 46V18.46C84.2583 17.62 84.3983 17.04 84.6783 16.72C84.9983 16.36 85.5583 16.16 86.3583 16.12C87.1583 16.04 88.3183 16 89.8383 16V44.92C89.8383 45.28 89.7583 45.54 89.5983 45.7C89.4383 45.82 88.9583 45.9 88.1583 45.94C87.3983 45.98 86.0983 46 84.2583 46ZM86.8983 12.34C86.0183 12.3 85.3383 12 84.8583 11.44C84.3783 10.84 84.1583 9.76 84.1983 8.2C84.1983 7 84.4383 6.04 84.9183 5.32C85.4383 4.6 86.2183 4.24 87.2583 4.24C88.2983 4.24 88.9983 4.52 89.3583 5.08C89.7583 5.64 89.9383 6.62 89.8983 8.02C89.8983 9.34 89.6383 10.4 89.1183 11.2C88.6383 11.96 87.8983 12.34 86.8983 12.34ZM103.264 46.6C101.704 46.6 100.324 46.4 99.1238 46C97.9638 45.64 96.9838 44.92 96.1838 43.84C95.3838 42.76 94.7838 41.2 94.3838 39.16C94.0238 37.08 93.8438 34.36 93.8438 31C93.8438 25.52 94.7238 21.56 96.4838 19.12C98.2438 16.64 100.684 15.4 103.804 15.4C105.924 15.4 107.664 15.84 109.024 16.72C110.424 17.56 111.464 19.1 112.144 21.34C112.824 23.58 113.164 26.74 113.164 30.82C113.164 36.46 112.324 40.5 110.644 42.94C108.964 45.38 106.504 46.6 103.264 46.6ZM103.444 41.98C104.164 41.98 104.804 41.72 105.364 41.2C105.924 40.64 106.364 39.56 106.684 37.96C107.004 36.32 107.164 33.96 107.164 30.88C107.164 27.8 107.044 25.48 106.804 23.92C106.564 22.36 106.184 21.32 105.664 20.8C105.144 20.28 104.464 20.02 103.624 20.02C102.864 20.02 102.184 20.3 101.584 20.86C101.024 21.42 100.584 22.5 100.264 24.1C99.9438 25.7 99.7838 28.02 99.7838 31.06C99.7838 33.46 99.8638 35.4 100.024 36.88C100.184 38.36 100.404 39.46 100.684 40.18C101.004 40.9 101.384 41.38 101.824 41.62C102.304 41.86 102.844 41.98 103.444 41.98Z" fill="black"/>
</svg>
